<svg xmlns="http://www.w3.org/2000/svg" xmlns:xlink="http://www.w3.org/1999/xlink" version="1.1" x="0px" y="0px" viewBox="0 0 750 500" style="enable-background:new 0 0 750 500;" xml:space="preserve">
<style xmlns="http://www.w3.org/2000/svg" type="text/css">
	.st0{fill:#FFBE55;}
	.st1{fill:#1D0F00;}
	.st2{fill:#2B94F4;}
	.st3{fill:#FFFFFF;}
	.st4{fill:#0A486F;}
	.st5{fill:#1E0F00;}
	.st6{fill:#D7D8D5;}
	.st7{fill:#2C94F2;}
	.st8{opacity:0.5;fill:#2C94F2;}
	.st9{fill:#EDEEE9;}
	.st10{opacity:0.5;fill:#0C476F;}
	.st11{fill:#FBBD90;}
	.st12{fill:#F9A77A;}
	.st13{fill:#FED5B0;}
	.st14{fill:#606060;}
	.st15{fill:none;}
	.st16{opacity:0.4;fill:#D3D4D1;}
	.st17{fill:#F1F2F2;}
	.st18{opacity:0.5;fill:#606060;}
	.st19{fill:#B2BDBB;}
	.st20{fill:#0C476F;}
	.st21{fill:#595352;}
	.st22{fill:#BFCAC8;}
	.st23{fill:#2D405A;}
	.st24{fill:#6F7878;}
	.st25{fill:#9AA4A3;}
	.st26{fill:#848D8D;}
	.st27{fill:#E3F3F3;}
	.st28{opacity:0.7;fill:#FBBD90;}
	.st29{fill:#D69538;}
	.st30{fill:#E5A342;}
</style>
<g xmlns="http://www.w3.org/2000/svg" id="BACKGROUND">
</g>
<g xmlns="http://www.w3.org/2000/svg" id="OBJECTS">
	<g>
		<polygon class="st0" points="637.2,424.7 293.7,424.7 234.9,189.4 222,137.8 563.6,137.8 576.8,189.4   "/>
		<g>
			<g>
				<g>
					<path class="st1" d="M307.2,238h-25.1c-0.4,0-0.8-0.3-0.9-0.7l-7-25.1c-0.1-0.3,0-0.6,0.2-0.8c0.2-0.2,0.5-0.4,0.7-0.4h25.1       c0.4,0,0.8,0.3,0.9,0.7l7,25.1c0.1,0.3,0,0.6-0.2,0.8C307.8,237.8,307.5,238,307.2,238z M282.8,236.1H306l-6.5-23.3h-23.2       L282.8,236.1z"/>
				</g>
			</g>
			<g>
				<g>
					<path class="st1" d="M348.8,238h-25.1c-0.4,0-0.8-0.3-0.9-0.7l-7-25.1c-0.1-0.3,0-0.6,0.2-0.8c0.2-0.2,0.5-0.4,0.7-0.4h25.1       c0.4,0,0.8,0.3,0.9,0.7l7,25.1c0.1,0.3,0,0.6-0.2,0.8C349.3,237.8,349.1,238,348.8,238z M324.4,236.1h23.2l-6.5-23.3h-23.2       L324.4,236.1z"/>
				</g>
			</g>
			<g>
				<g>
					<path class="st1" d="M390.3,238h-25.1c-0.4,0-0.8-0.3-0.9-0.7l-7-25.1c-0.1-0.3,0-0.6,0.2-0.8c0.2-0.2,0.5-0.4,0.7-0.4h25.1       c0.4,0,0.8,0.3,0.9,0.7l7,25.1c0.1,0.3,0,0.6-0.2,0.8C390.9,237.8,390.6,238,390.3,238z M365.9,236.1h23.2l-6.5-23.3h-23.2       L365.9,236.1z"/>
				</g>
			</g>
			<g>
				<path class="st1" d="M431.9,238h-25.1c-0.4,0-0.8-0.3-0.9-0.7l-7-25.1c-0.1-0.3,0-0.6,0.2-0.8c0.2-0.2,0.5-0.4,0.7-0.4h25.1      c0.4,0,0.8,0.3,0.9,0.7l7,25.1c0.1,0.3,0,0.6-0.2,0.8C432.4,237.8,432.2,238,431.9,238z M407.5,236.1h23.2l-6.5-23.3H401      L407.5,236.1z"/>
			</g>
			<g>
				<path class="st1" d="M473.4,238h-25.1c-0.4,0-0.8-0.3-0.9-0.7l-7-25.1c-0.1-0.3,0-0.6,0.2-0.8c0.2-0.2,0.5-0.4,0.7-0.4h25.1      c0.4,0,0.8,0.3,0.9,0.7l7,25.1c0.1,0.3,0,0.6-0.2,0.8C474,237.8,473.7,238,473.4,238z M449,236.1h23.2l-6.5-23.3h-23.2      L449,236.1z"/>
			</g>
			<g>
				<path class="st1" d="M515,238h-25.1c-0.4,0-0.8-0.3-0.9-0.7l-7-25.1c-0.1-0.3,0-0.6,0.2-0.8c0.2-0.2,0.5-0.4,0.7-0.4H508      c0.4,0,0.8,0.3,0.9,0.7l7,25.1c0.1,0.3,0,0.6-0.2,0.8C515.5,237.8,515.3,238,515,238z M490.6,236.1h23.2l-6.5-23.3h-23.2      L490.6,236.1z"/>
			</g>
			<g>
				<path class="st1" d="M556.5,238h-25.1c-0.4,0-0.8-0.3-0.9-0.7l-7-25.1c-0.1-0.3,0-0.6,0.2-0.8c0.2-0.2,0.5-0.4,0.7-0.4h25.1      c0.4,0,0.8,0.3,0.9,0.7l7,25.1c0.1,0.3,0,0.6-0.2,0.8C557.1,237.8,556.8,238,556.5,238z M532.1,236.1h23.2l-6.5-23.3h-23.2      L532.1,236.1z"/>
			</g>
		</g>
		<g>
			<g>
				<path class="st1" d="M318.8,279.5h-25.1c-0.4,0-0.8-0.3-0.9-0.7l-7-25.1c-0.1-0.3,0-0.6,0.2-0.8c0.2-0.2,0.5-0.4,0.7-0.4h25.1      c0.4,0,0.8,0.3,0.9,0.7l7,25.1c0.1,0.3,0,0.6-0.2,0.8C319.4,279.4,319.1,279.5,318.8,279.5z M294.4,277.6h23.2l-6.5-23.3h-23.2      L294.4,277.6z"/>
			</g>
		</g>
		<g>
			<g>
				<path class="st1" d="M360.3,279.5h-25.1c-0.4,0-0.8-0.3-0.9-0.7l-7-25.1c-0.1-0.3,0-0.6,0.2-0.8c0.2-0.2,0.5-0.4,0.7-0.4h25.1      c0.4,0,0.8,0.3,0.9,0.7l7,25.1c0.1,0.3,0,0.6-0.2,0.8C360.9,279.4,360.6,279.5,360.3,279.5z M335.9,277.6h23.2l-6.5-23.3h-23.2      L335.9,277.6z"/>
			</g>
		</g>
		<g>
			<path class="st1" d="M401.9,279.5h-25.1c-0.4,0-0.8-0.3-0.9-0.7l-7-25.1c-0.1-0.3,0-0.6,0.2-0.8c0.2-0.2,0.5-0.4,0.7-0.4h25.1     c0.4,0,0.8,0.3,0.9,0.7l7,25.1c0.1,0.3,0,0.6-0.2,0.8C402.5,279.4,402.2,279.5,401.9,279.5z M377.5,277.6h23.2l-6.5-23.3H371     L377.5,277.6z"/>
		</g>
		<g>
			<g>
				<path class="st2" d="M443.4,281.4h-25.1c-1.3,0-2.4-0.8-2.7-2.1l-7-25.1c-0.2-0.8-0.1-1.8,0.5-2.5c0.5-0.7,1.4-1.1,2.2-1.1h25.1      c1.3,0,2.4,0.8,2.7,2.1l7,25.1c0.2,0.8,0.1,1.8-0.5,2.5C445.2,281,444.3,281.4,443.4,281.4z M420.5,275.8h19.3l-5.4-19.5H415      L420.5,275.8z"/>
			</g>
		</g>
		<g>
			<g>
				<polygon class="st1" points="430.2,272.2 419,262.9 422.6,258.6 429,263.9 440,247.2 444.7,250.3     "/>
			</g>
		</g>
		<g>
			<path class="st1" d="M485,279.5h-25.1c-0.4,0-0.8-0.3-0.9-0.7l-7-25.1c-0.1-0.3,0-0.6,0.2-0.8c0.2-0.2,0.5-0.4,0.7-0.4H478     c0.4,0,0.8,0.3,0.9,0.7l7,25.1c0.1,0.3,0,0.6-0.2,0.8C485.6,279.4,485.3,279.5,485,279.5z M460.6,277.6h23.2l-6.5-23.3h-23.2     L460.6,277.6z"/>
		</g>
		<g>
			<path class="st1" d="M526.5,279.5h-25.1c-0.4,0-0.8-0.3-0.9-0.7l-7-25.1c-0.1-0.3,0-0.6,0.2-0.8c0.2-0.2,0.5-0.4,0.7-0.4h25.1     c0.4,0,0.8,0.3,0.9,0.7l7,25.1c0.1,0.3,0,0.6-0.2,0.8C527.1,279.4,526.8,279.5,526.5,279.5z M502.1,277.6h23.2l-6.5-23.3h-23.2     L502.1,277.6z"/>
		</g>
		<g>
			<path class="st1" d="M568.1,279.5H543c-0.4,0-0.8-0.3-0.9-0.7l-7-25.1c-0.1-0.3,0-0.6,0.2-0.8c0.2-0.2,0.5-0.4,0.7-0.4h25.1     c0.4,0,0.8,0.3,0.9,0.7l7,25.1c0.1,0.3,0,0.6-0.2,0.8C568.7,279.4,568.4,279.5,568.1,279.5z M543.7,277.6h23.2l-6.5-23.3h-23.2     L543.7,277.6z"/>
		</g>
		<g>
			<g>
				<path class="st1" d="M330.4,321h-25.1c-0.4,0-0.8-0.3-0.9-0.7l-7-25.1c-0.1-0.3,0-0.6,0.2-0.8c0.2-0.2,0.5-0.4,0.7-0.4h25.1      c0.4,0,0.8,0.3,0.9,0.7l7,25.1c0.1,0.3,0,0.6-0.2,0.8C330.9,320.9,330.7,321,330.4,321z M306,319.2h23.2l-6.5-23.3h-23.2      L306,319.2z"/>
			</g>
		</g>
		<g>
			<g>
				<path class="st1" d="M371.9,321h-25.1c-0.4,0-0.8-0.3-0.9-0.7l-7-25.1c-0.1-0.3,0-0.6,0.2-0.8c0.2-0.2,0.5-0.4,0.7-0.4h25.1      c0.4,0,0.8,0.3,0.9,0.7l7,25.1c0.1,0.3,0,0.6-0.2,0.8C372.5,320.9,372.2,321,371.9,321z M347.5,319.2h23.2l-6.5-23.3H341      L347.5,319.2z"/>
			</g>
		</g>
		<g>
			<path class="st1" d="M413.5,321h-25.1c-0.4,0-0.8-0.3-0.9-0.7l-7-25.1c-0.1-0.3,0-0.6,0.2-0.8c0.2-0.2,0.5-0.4,0.7-0.4h25.1     c0.4,0,0.8,0.3,0.9,0.7l7,25.1c0.1,0.3,0,0.6-0.2,0.8C414,320.9,413.8,321,413.5,321z M389.1,319.2h23.2l-6.5-23.3h-23.2     L389.1,319.2z"/>
		</g>
		<g>
			<path class="st1" d="M455,321h-25.1c-0.4,0-0.8-0.3-0.9-0.7l-7-25.1c-0.1-0.3,0-0.6,0.2-0.8c0.2-0.2,0.5-0.4,0.7-0.4H448     c0.4,0,0.8,0.3,0.9,0.7l7,25.1c0.1,0.3,0,0.6-0.2,0.8C455.6,320.9,455.3,321,455,321z M430.6,319.2h23.2l-6.5-23.3h-23.2     L430.6,319.2z"/>
		</g>
		<g>
			<path class="st1" d="M496.6,321h-25.1c-0.4,0-0.8-0.3-0.9-0.7l-7-25.1c-0.1-0.3,0-0.6,0.2-0.8c0.2-0.2,0.5-0.4,0.7-0.4h25.1     c0.4,0,0.8,0.3,0.9,0.7l7,25.1c0.1,0.3,0,0.6-0.2,0.8C497.1,320.9,496.9,321,496.6,321z M472.2,319.2h23.2l-6.5-23.3h-23.2     L472.2,319.2z"/>
		</g>
		<g>
			<path class="st1" d="M538.1,321H513c-0.4,0-0.8-0.3-0.9-0.7l-7-25.1c-0.1-0.3,0-0.6,0.2-0.8c0.2-0.2,0.5-0.4,0.7-0.4h25.1     c0.4,0,0.8,0.3,0.9,0.7l7,25.1c0.1,0.3,0,0.6-0.2,0.8C538.7,320.9,538.4,321,538.1,321z M513.7,319.2h23.2l-6.5-23.3h-23.2     L513.7,319.2z"/>
		</g>
		<g>
			<g>
				<path class="st2" d="M579.7,322.9h-25.1c-1.3,0-2.4-0.8-2.7-2.1l-7-25.1c-0.2-0.8-0.1-1.8,0.5-2.5c0.5-0.7,1.4-1.1,2.2-1.1h25.1      c1.3,0,2.4,0.8,2.7,2.1l7,25.1c0.2,0.8,0.1,1.8-0.5,2.5C581.4,322.5,580.6,322.9,579.7,322.9z M556.7,317.3H576l-5.4-19.5h-19.3      L556.7,317.3z"/>
			</g>
		</g>
		<g>
			<g>
				<g>
					<path class="st1" d="M353.5,404.1h-25.1c-0.4,0-0.8-0.3-0.9-0.7l-7-25.1c-0.1-0.3,0-0.6,0.2-0.8c0.2-0.2,0.5-0.4,0.7-0.4h25.1       c0.4,0,0.8,0.3,0.9,0.7l7,25.1c0.1,0.3,0,0.6-0.2,0.8C354.1,404,353.8,404.1,353.5,404.1z M329.1,402.3h23.2l-6.5-23.3h-23.2       L329.1,402.3z"/>
				</g>
			</g>
			<g>
				<g>
					<path class="st1" d="M395.1,404.1H370c-0.4,0-0.8-0.3-0.9-0.7l-7-25.1c-0.1-0.3,0-0.6,0.2-0.8c0.2-0.2,0.5-0.4,0.7-0.4h25.1       c0.4,0,0.8,0.3,0.9,0.7l7,25.1c0.1,0.3,0,0.6-0.2,0.8C395.7,404,395.4,404.1,395.1,404.1z M370.7,402.3h23.2l-6.5-23.3h-23.2       L370.7,402.3z"/>
				</g>
			</g>
		</g>
		<g>
			<g>
				<g>
					<path class="st1" d="M342,362.6h-25.1c-0.4,0-0.8-0.3-0.9-0.7l-7-25.1c-0.1-0.3,0-0.6,0.2-0.8c0.2-0.2,0.5-0.4,0.7-0.4H335       c0.4,0,0.8,0.3,0.9,0.7l7,25.1c0.1,0.3,0,0.6-0.2,0.8C342.5,362.5,342.2,362.6,342,362.6z M317.5,360.7h23.2l-6.5-23.3h-23.2       L317.5,360.7z"/>
				</g>
			</g>
			<g>
				<g>
					<path class="st2" d="M383.5,364.5h-25.1c-1.3,0-2.4-0.8-2.7-2.1l-7-25.1c-0.2-0.8-0.1-1.8,0.5-2.5c0.5-0.7,1.4-1.1,2.2-1.1       h25.1c1.3,0,2.4,0.8,2.7,2.1l7,25.1c0.2,0.8,0.1,1.8-0.5,2.5C385.2,364,384.4,364.5,383.5,364.5z M360.5,358.8h19.3l-5.4-19.5       h-19.3L360.5,358.8z"/>
				</g>
			</g>
			<g>
				<g>
					<polygon class="st1" points="369.1,351.9 357.8,342.5 361.4,338.2 367.8,343.5 378.9,326.8 383.6,329.9      "/>
				</g>
			</g>
			<g>
				<path class="st1" d="M425.1,362.6h-25.1c-0.4,0-0.8-0.3-0.9-0.7l-7-25.1c-0.1-0.3,0-0.6,0.2-0.8c0.2-0.2,0.5-0.4,0.7-0.4h25.1      c0.4,0,0.8,0.3,0.9,0.7l7,25.1c0.1,0.3,0,0.6-0.2,0.8C425.6,362.5,425.3,362.6,425.1,362.6z M400.6,360.7h23.2l-6.5-23.3h-23.2      L400.6,360.7z"/>
			</g>
			<g>
				<path class="st1" d="M466.6,362.6h-25.1c-0.4,0-0.8-0.3-0.9-0.7l-7-25.1c-0.1-0.3,0-0.6,0.2-0.8c0.2-0.2,0.5-0.4,0.7-0.4h25.1      c0.4,0,0.8,0.3,0.9,0.7l7,25.1c0.1,0.3,0,0.6-0.2,0.8C467.2,362.5,466.9,362.6,466.6,362.6z M442.2,360.7h23.2l-6.5-23.3h-23.2      L442.2,360.7z"/>
			</g>
			<g>
				<path class="st1" d="M508.2,362.6H483c-0.4,0-0.8-0.3-0.9-0.7l-7-25.1c-0.1-0.3,0-0.6,0.2-0.8c0.2-0.2,0.5-0.4,0.7-0.4h25.1      c0.4,0,0.8,0.3,0.9,0.7l7,25.1c0.1,0.3,0,0.6-0.2,0.8C508.7,362.5,508.4,362.6,508.2,362.6z M483.7,360.7h23.2l-6.5-23.3h-23.2      L483.7,360.7z"/>
			</g>
			<g>
				<path class="st1" d="M549.7,362.6h-25.1c-0.4,0-0.8-0.3-0.9-0.7l-7-25.1c-0.1-0.3,0-0.6,0.2-0.8c0.2-0.2,0.5-0.4,0.7-0.4h25.1      c0.4,0,0.8,0.3,0.9,0.7l7,25.1c0.1,0.3,0,0.6-0.2,0.8C550.3,362.5,550,362.6,549.7,362.6z M525.3,360.7h23.2l-6.5-23.3h-23.2      L525.3,360.7z"/>
			</g>
			<g>
				<path class="st1" d="M591.3,362.6h-25.1c-0.4,0-0.8-0.3-0.9-0.7l-7-25.1c-0.1-0.3,0-0.6,0.2-0.8c0.2-0.2,0.5-0.4,0.7-0.4h25.1      c0.4,0,0.8,0.3,0.9,0.7l7,25.1c0.1,0.3,0,0.6-0.2,0.8C591.8,362.5,591.5,362.6,591.3,362.6z M566.8,360.7H590l-6.5-23.3h-23.2      L566.8,360.7z"/>
			</g>
		</g>
		<polygon class="st2" points="576.8,189.4 213.5,189.4 222,137.8 563.6,137.8   "/>
		<g>
			<path class="st3" d="M355.7,174.8c-0.8,0-1.3-0.3-1.6-1.1l-8.4-20.1c-0.3-0.8-0.1-1.1,0.7-1.1h5c0.7,0,1.2,0.2,1.8,0.9l4.9,5.1     c0.4,0.4,0.5,0.5,0.8,0.5h0.3c0.2,0,0.3-0.2,0.3-0.5l0.6-5.1c0.1-0.7,0.4-0.9,1-0.9h5c0.8,0,1.3,0.3,1.6,1.1l8.4,20.1     c0.3,0.8,0.1,1.1-0.7,1.1h-4.8c-0.8,0-1.3-0.3-1.6-1.1l-4.6-10.9l-0.4,3.4c-0.1,0.7-0.4,1-1.2,1h-1.2c-0.8,0-1.4-0.3-2.1-1     l-3.2-3.4l4.6,10.9c0.3,0.8,0.1,1.1-0.7,1.1H355.7z"/>
			<path class="st3" d="M390.4,175.3c-7.8,0-10.7-2.6-12.3-6.3l-4.4-10.6c-1.6-3.8-0.8-6.4,7-6.4c7.8,0,10.7,2.6,12.3,6.4l4.4,10.6     C399,172.7,398.2,175.3,390.4,175.3z M387.9,169.3c2.3,0,2.3-0.6,2-1.5l-3.5-8.4c-0.3-0.8-0.9-1.4-3.2-1.4c-2.2,0-2.4,0.6-2,1.4     l3.5,8.4C385.1,168.7,385.7,169.3,387.9,169.3z"/>
			<path class="st3" d="M405,174.8c-0.8,0-1.3-0.3-1.6-1.1l-8.4-20.1c-0.3-0.8-0.1-1.1,0.7-1.1h3.2c0.8,0,1.4,0.2,2.2,0.8l8.9,6.9     l-2.8-6.6c-0.3-0.8-0.1-1.1,0.7-1.1h4.7c0.8,0,1.3,0.3,1.6,1.1l8.4,20.1c0.3,0.8,0.1,1.1-0.7,1.1h-4.7c-0.8,0-1.3-0.3-1.6-1.1     l-1.6-3.8l-8-6.4l4.3,10.3c0.3,0.8,0.1,1.1-0.7,1.1H405z"/>
			<path class="st3" d="M432.8,174.8c-0.8,0-1.3-0.3-1.6-1.1l-6.4-15.3h-4.6c-0.8,0-1.3-0.3-1.6-1.1l-1.6-3.8     c-0.3-0.8-0.1-1.1,0.7-1.1h16.4c0.8,0,1.3,0.3,1.6,1.1l1.6,3.8c0.3,0.8,0.1,1.1-0.7,1.1h-4.6l6.4,15.3c0.3,0.8,0.1,1.1-0.7,1.1     H432.8z"/>
			<path class="st3" d="M448.8,174.8c-0.8,0-1.3-0.3-1.6-1.1l-8.4-20.1c-0.3-0.8-0.1-1.1,0.7-1.1h4.8c0.8,0,1.3,0.3,1.6,1.1l2.8,6.7     h5.2l-2.8-6.7c-0.3-0.8-0.1-1.1,0.7-1.1h4.8c0.8,0,1.3,0.3,1.6,1.1l8.4,20.1c0.3,0.8,0.1,1.1-0.7,1.1H461c-0.8,0-1.3-0.3-1.6-1.1     l-2.9-6.9h-5.2l2.9,6.9c0.3,0.8,0.1,1.1-0.7,1.1H448.8z"/>
		</g>
		<polygon class="st1" points="293.7,424.7 176.8,424.7 213.5,189.4 222,137.8 234.9,189.4   "/>
		<polygon class="st4" points="234.9,189.4 213.5,189.4 222,137.8   "/>
		<polygon class="st5" points="225.6,189.9 256.7,425.2 293.7,425.2 234.9,189.9   "/>
		<g>
			<g>
				<path class="st1" d="M290.4,103.3c-20.9-2.3-38.7,14-38.7,34.5h9.4c0-15.5,14-27.8,30-25c10.3,1.8,18.5,10.1,20.3,20.3      c2.6,14.6-7.4,27.6-21,29.7c-2.3,0.4-3.9,2.3-3.9,4.6l0,0c0,2.9,2.5,5.1,5.4,4.6c17.9-2.8,31.3-19.2,29.2-38.3      C319.2,118,306.3,105.1,290.4,103.3z"/>
			</g>
			<g>
				<path class="st1" d="M503.8,103.3c-20.9-2.3-38.7,14-38.7,34.5h9.4c0-15.5,14-27.8,30-25c10.3,1.8,18.5,10.1,20.3,20.3      c2.6,14.6-7.4,27.6-21,29.7c-2.3,0.4-3.9,2.3-3.9,4.6l0,0c0,2.9,2.5,5.1,5.4,4.6c17.9-2.8,31.3-19.2,29.2-38.3      C532.5,118,519.6,105.1,503.8,103.3z"/>
			</g>
		</g>
	</g>
	<g>
		<path class="st6" d="M237.4,299.2c0,0,0,10.8,20.3,21.6C257.7,320.8,257.7,304.4,237.4,299.2z"/>
		<g>
			<path class="st7" d="M241.5,364.8c-4.2-20.9-9.1-38.4-12.8-58.5c-11.8,11.8-30.4,13.4-30.4,13.4l-6.3-15l-6.4,17.1     c-9.9-2.3-21.8-13.5-27.6-18.5c-6.1,31-20.3,75.5-14.8,121.9c0,0,39.2,24.4,101.8,4.5C247.5,393.4,245.7,385.5,241.5,364.8z"/>
			<path class="st8" d="M157.5,305.8c0,0,19.3,21.2,29.3,22.1l5.5-19.7l4.3,13.8c0,0,21.7-1.3,32.3-14.4l-0.2-1.2l-36.7-1.6     l-33.8-2.4L157.5,305.8z"/>
			<path class="st7" d="M192,304.7l6.3,15c0,0,18.6-1.6,30.4-13.4c-2.6-14.1-4.3-25.1-3.9-28.9c1.6-14.1,11.1-27.6,12.2-33.5     c1-5.9-5.5-30.6-5.6-31.3c-0.1-0.7,3.4-19.4,3.4-19.4l-14.9-3.9l-9-3.8l-17-1.5h-0.5l-16.9,1.5l-11.8,5.3l-12.5,1l2.7,20.2     c0,0-4.7,25.6-4.7,30.2s9.9,23.7,12.4,31.2c0.9,2.5-1.3,13.9-4.5,29.7c2.9,7.2,19.1,18.7,26.9,21.2L192,304.7z"/>
		</g>
		<path class="st9" d="M230.2,190.6l16.5,4.2c6.5,2.6,9.5,17.3,9.5,17.3s22.8,40,22.8,47.6c0.1,10.5-6.7,35.6-21.3,61.1    c0,0,0.4-15.8-20.3-21.6c0,0,10.2-19.3,20.3-37.7c0,0-10.3-19.7-20.1-31.6l-5.2-17.7C232.4,212.3,232.5,200.6,230.2,190.6z"/>
		<path class="st10" d="M202.6,319.1l-1.9,65.9c0,0,26.2-3.5,41.5-16.9l-12-54.2L202.6,319.1z"/>
		<g>
			<path class="st5" d="M225.8,111.4C222,84.2,197,77.6,174.5,89.8c-22.5,12.2-13.6,55.5-11,68.9c1.8,9,7,17,10.2,21.3     c0.1,0,0.2,0,0.3,0c0,0-2.5-6-2.3-9.7c0,0,0.8,3.9,2.4,6c0,0-1.6-8.6-1-10.7c0,0,1.4,6.9,1.8,8.1c0.4,1.2,12-8.9,35.2,0     c0,0,3.5-4.2,4.3-10.3c0,0,0.1,6.8-2.4,11.8c0,0,3.3-0.3,4.6-7.7c0,0,1.1,6.8-2.1,12.6c0,0,0.1,0,0.1,0     C221.6,168.7,229.1,135.4,225.8,111.4z"/>
			<path class="st5" d="M225.5,81.3c-15.2-19.1-38.9-16.4-42.7-7.4c0,0-12.7-4.6-24.5,14c-11.6,18.2-6,73-4.3,83.6     c0,0,11.4,7.8,19.7,8.5c-3.2-4.3-8.5-12.3-10.2-21.3c-2.6-13.4-11.5-56.7,11-68.9c22.5-12.2,47.5-5.5,51.3,21.6     c3.4,24-4.2,57.3-11.1,68.6c1.5-0.3,17.3-3.3,19.9-9.9C239.7,157.2,241.4,101.2,225.5,81.3z"/>
		</g>
		<rect x="180" y="158" class="st11" width="27" height="26.7"/>
		<ellipse transform="matrix(0.8666 -0.4991 0.4991 0.8666 -44.3815 97.956)" class="st11" cx="161" cy="132" rx="7.8" ry="12.4"/>
		<path class="st12" d="M180,166.3c0,0,8.8,7.5,12,7.7c3.2,0.2,15-6.3,15-6.3l0-6.1h-27V166.3z"/>
		<path class="st11" d="M218.8,128.1c-3.4,5.9-3.2,12.5,0.5,14.7c3.7,2.1,9.5-0.9,12.9-6.9s3.2-12.5-0.5-14.7    C228.1,119.1,222.3,122.1,218.8,128.1z"/>
		<path class="st13" d="M224.5,126.9c0,25-21.3,42.5-31,42.5c-8.7,0-31-17.6-31-42.5c0-25,13.9-41.2,31-41.2    C210.6,85.7,224.5,101.9,224.5,126.9z"/>
		<path class="st5" d="M208.2,78.6c-7-3.4-16-4.2-24-1.8c0,0,0,0,0,0c-45.3,10.7-22.1,76.3-22.1,76.3c-0.9-14.9,0.1-28.6,2-39.1    c0,0.4,2.5-9,2.4-7.4c-0.1,1.5-2,16.5-2,17.6c0,0,10.2-3,19.2-7.2l1.6-9.8l1.8,8.1c0,0,23.1-9.7,27.8-16.5c0.5,0.6,2,2.8,2.5,5.6    c0,0,2.2,6.3,2.2,11.5c0,0,2.2-3,2.3-10.1c1.2,8.9,3.7,29.7,2.6,47.2C224.5,153.1,245.6,93.4,208.2,78.6z"/>
		<polygon class="st14" points="180,173.6 193.3,184.7 187.5,202.3 176.2,186   "/>
		<path class="st15" d="M226,126.9c0,25-24.1,42.5-32.5,42.5c-8.3,0-32.5-17.6-32.5-42.5c0-25,14.6-41.2,32.5-41.2    C211.5,85.7,226,101.9,226,126.9z"/>
		<polygon class="st14" points="207.1,173.6 193.8,184.7 199.6,202.3 210.8,186   "/>
		<g>
			<g>
				<path class="st9" d="M181.8,266l-5.2-80.6l-8.8,3.7l-10.3,1.5c0,0-4.4,18.2-3.3,22.6c0,0-6.3,23-6.5,29.7s12.4,21.6,13.3,37.5      l-2.5,5.2c0,0,0.6,2.6,1.3,5c0,0-14,45.7-16.8,66.6c6.8,4.3,23.9,14.7,40,19.3L181.8,266z"/>
				<path class="st3" d="M143,356.8c-0.3,2.2-0.5,4.1-0.5,5.7c0,0,21.2,12.8,40.6,18.1l0-4.4C166.9,371.5,149.8,361.2,143,356.8z"/>
			</g>
			<g>
				<path class="st9" d="M244.5,356.6c-3-21.1-16.8-66.1-16.8-66.1c0.7-2.4,1.3-5,1.3-5l-2.5-5.2c0.9-15.9,14.5-24.9,13.3-37.5      c-0.6-6.6-6.5-29.7-6.5-29.7c1-4.4-3.1-22.6-3.1-22.6l-10.4-1.5l-8.8-3.7l-5.2,80.6l-1.2,109.8      C212.2,373.5,235.7,365.8,244.5,356.6z"/>
				<path class="st3" d="M204.5,375.9l-0.1,5c19.4-5.2,40.6-18.1,40.6-18.1c0-1.7-0.2-3.8-0.6-6.2      C235.7,365.8,212.2,373.5,204.5,375.9z"/>
			</g>
			<path class="st3" d="M176.6,185.4l5.2,80.6c0,0-19.9-23.4-18.8-49.4l6.8-3.8l-7.8-1.7l5.8-22L176.6,185.4z"/>
			<path class="st3" d="M210.9,185.4l-5.2,80.6c0,0,19.9-23.4,18.8-49.4l-6.8-3.8l7.8-1.7l-5.8-22L210.9,185.4z"/>
			<path class="st16" d="M214.8,328.1c0,0,14.2,0.5,19.8-3.6l2,19.8l-7.1,7.7l-13-4.8L214.8,328.1z"/>
			<g>
				<path class="st3" d="M234.7,326.2c-7.6,4.2-16.1,4.6-18.9,4.6l2.5,15.8l12.8,3.8l6.4-8.1L234.7,326.2z"/>
				<path class="st17" d="M234.7,326.2l-0.6-3.3c-5.1,4.5-18.8,5-18.8,5l0.5,2.9C218.5,330.8,227.1,330.4,234.7,326.2z"/>
			</g>
			<path class="st16" d="M234.1,322.8h-3.4l0.3,1.9C231,324.7,233.6,323.4,234.1,322.8z"/>
			<path class="st16" d="M172.8,326.3c0,0-14.8,0.5-20.6-3.8l-2.1,20.7l7.5,8l13.5-5L172.8,326.3z"/>
			<g>
				<path class="st3" d="M152.1,324.3c7.9,4.4,16.8,4.8,19.8,4.8l-2.6,16.5l-13.4,4l-6.6-8.4L152.1,324.3z"/>
				<path class="st17" d="M152.1,324.3l0.6-3.5c5.4,4.7,19.6,5.2,19.6,5.2l-0.5,3C168.9,329,160,328.7,152.1,324.3z"/>
			</g>
			<path class="st16" d="M152.6,320.8h3.5l-0.3,2C155.9,322.8,153.2,321.3,152.6,320.8z"/>
		</g>
		<path class="st18" d="M193.3,184.7l-0.2,33.5l-1.1,86.5l6.3,15c0,0,2.7,0.1,3.5-0.5l-6.6-16l1.1-110.7l-2.6-7.9H193.3z"/>
		<path class="st9" d="M192.9,303.2c0-0.5,0.4-1,1-1s1,0.4,1,1s-0.4,1-1,1S192.9,303.8,192.9,303.2z"/>
		<path class="st9" d="M192.9,280.9c0-0.5,0.4-1,1-1s1,0.4,1,1s-0.4,1-1,1S192.9,281.5,192.9,280.9z"/>
		<path class="st9" d="M193.2,262.6c0-0.5,0.4-1,1-1c0.5,0,1,0.4,1,1c0,0.5-0.4,1-1,1C193.6,263.5,193.2,263.1,193.2,262.6z"/>
		<circle class="st9" cx="194.6" cy="244.2" r="1"/>
		<path class="st9" d="M193.6,226c0-0.5,0.4-1,1-1s1,0.4,1,1c0,0.5-0.4,1-1,1S193.6,226.6,193.6,226z"/>
		<path class="st9" d="M193.6,207.4c0-0.5,0.4-1,1-1s1,0.4,1,1s-0.4,1-1,1S193.6,207.9,193.6,207.4z"/>
		<path class="st19" d="M164,239.2C164,239.2,164,239.2,164,239.2C164,239.2,164,239.1,164,239.2c-0.2-0.4-0.3-0.6-0.4-1l0,0    c-0.6-1.3-2-3.8-4.5-7.1c0,0,0.2-2,2.7-2.2c0,0,3.1,4.4,5.1,8.8c0,0,6.1,13.8,11.1,18.2c0,0,0.4-0.4,1.1-0.2    c0.7,0.2,2.4,2.8,1.4,3.3c-0.9,0.6-2.1,0.7-3,0.2C176.6,258.5,171.6,256.2,164,239.2z"/>
		<path class="st20" d="M178,180.1l1-3.2c-17.7,2.3-17,24.5-16,33.2c-2,0.9-4.1,2.8-5.3,6.8c-2.6,9.3,1.6,14.3,1.6,14.3    s0.5-1.8,2.7-2.2c0,0-2.9-4.5-1.2-11.1c1.7-6.6,8-5.2,9.7-3.9c1.7,1.3,3.4,8.1,2.6,11.9c0,0,1.8-1.3,3.1,0c0,0,1.4-15-7.9-16.5    c0,0-1-0.2-2.4-0.1C163.8,180.8,178,180.1,178,180.1z"/>
		<path class="st21" d="M170.9,257c0,0-0.2-1.2-1.7-1.4c-1.5-0.2-3.7-0.5-4.3,1.1c-0.6,1.6-0.5,4,1.5,4.4c2,0.4,3.8,0.9,4.1-0.1    C170.4,260.9,171.3,258,170.9,257z"/>
		<path class="st22" d="M175.5,235.4C175.5,235.4,175.5,235.4,175.5,235.4C175.5,235.4,175.5,235.4,175.5,235.4c0-0.4,0-0.7-0.1-1.1    l0,0c0-1.4,0-4.3,0.7-8.4c0,0-1.2-1.9-3.1,0c0,0-1,4.6-0.8,9.5c0,0,0.9,15.1-1.5,21.2c0,0-0.5-0.2-1.1,0.3    c-0.6,0.5-0.8,3.5,0.2,3.6c1.1,0.1,2.2-0.3,2.8-1.3C173.2,258.4,176.6,254.1,175.5,235.4z"/>
		<path class="st21" d="M178,256.2c0,0-0.3-1.2,0.9-2c1.2-0.8,3.1-2.2,4.3-1.1c1.3,1.1,2.3,3.4,0.7,4.6c-1.6,1.3-3,2.5-3.7,1.8    C180.2,259.5,178.1,257.3,178,256.2z"/>
		<path class="st23" d="M176,177.5c0,0-0.1,2.4-1.2,3.6c0,0,1.8-1,3.3-1l1-3.2C179,176.9,176.9,177.2,176,177.5z"/>
		<g>
			<ellipse class="st24" cx="211.3" cy="233" rx="7.8" ry="7.6"/>
			
				<ellipse transform="matrix(0.7071 -0.7071 0.7071 0.7071 -102.4071 217.618)" class="st25" cx="211.5" cy="232.4" rx="7.6" ry="7.6"/>
			<path class="st20" d="M208,176.9l1,3.4c0,0,6.8,1,7.1,18.7c0.3,17.7-5.1,28.1-5.1,28.1s2.4,0.1,4.1,2.4c0,0,5.8-19.6,4.4-34.7     C218.9,186.4,215.4,178.6,208,176.9z"/>
			<circle class="st26" cx="211.5" cy="231.9" r="5.5"/>
			<path class="st22" d="M210.5,227.3c0,0,1.6-3.1,1.8-3.9c0,0,3.3-0.7,4.6,1.7c0,0-0.9,3.8-1.4,4.8     C215.5,230,214.5,227.5,210.5,227.3z"/>
			<path class="st22" d="M206.6,231.5c0-2.7,2.2-4.8,4.8-4.8c2.7,0,4.8,2.2,4.8,4.8c0,2.7-2.2,4.8-4.8,4.8     C208.8,236.3,206.6,234.2,206.6,231.5z"/>
			<path class="st27" d="M208.5,230.8c0-1.9,1.5-3.4,3.4-3.4c1.9,0,3.4,1.5,3.4,3.4s-1.5,3.4-3.4,3.4     C210,234.2,208.5,232.7,208.5,230.8z"/>
			<path class="st23" d="M210.2,177.6c0,0-0.7,1.4-0.3,3c0,0-0.6-0.3-0.9-0.3l-1-3.4C208,176.9,209.7,177.3,210.2,177.6z"/>
		</g>
		<path class="st9" d="M157.5,190.6l-16.5,4.2c-6.5,2.6-5.6,18.3-5.6,18.3s-20.9,56.5-19.7,64.1c1.3,8.4,13.2,33.2,41.1,42.3    c0,0-7.2-24.7,14-33.4c0,0-18.3-0.3-27.8-11.7c0,0-4.2-1.3-2.8-5.7c1.3-4.3,5.6-22,9.9-38.7l4.1-16.8    C154.2,213.2,155.2,200.6,157.5,190.6z"/>
		<path class="st6" d="M170.8,286.1c0,0-21.6,10.6-14,33.4C156.8,319.4,174.5,310,170.8,286.1z"/>
		<polygon class="st0" points="146.7,278.8 130.1,236.3 173.5,241.5 192.8,313.5 157.8,306.6   "/>
		<path class="st9" d="M137.3,264.3c0,0,15.9,17.6,34.2,21.8c0,0-14.1,4.3-16.1,20.4l-10.5-9C145,297.4,134.4,275.8,137.3,264.3z"/>
		<path class="st13" d="M243.6,301.5c0,0-2.2,3.8-4.4,7.4c0,0-8.1-12-16.3-13.3c-8.1-1.3-10.3,4.8-10.3,4.8s1.8,2.6,4.8,1.1    c3.1-1.5,6-1.3,7.7,0.6c0,0-3.9-2.1-10.3,3.2c0,0,1,3.6,4.4,2.7c3.4-0.9,10.5,0,10.9,0.1c0.4,0.2-11.2-0.6-12.1,1.3s0.9,2.8,3,2.7    c2.1-0.1,9.7,1.3,9.7,1.3s-7.7,0.4-8,1c-0.3,0.6-0.3,2.5,1.3,2.7c1.6,0.1,8.5-1.2,9.6,0c1.2,1.2,2.6,8.6,6.3,8.3    c3.7-0.3,15.7-12.9,15.7-12.9S253.5,306.8,243.6,301.5z"/>
		<polygon class="st6" points="220.7,239.5 234.1,240 234.1,243.2 219.4,242.8   "/>
		<path class="st3" d="M238.7,296.8c0,0,17.3,2,21.4,19.6l-2.4,4.4c0,0-0.3-15.6-20.3-21.6L238.7,296.8z"/>
		<path class="st28" d="M243.5,301.6l-0.7,1.2c0,0,8.3,4.6,9.5,13.1l3.1-3.1C255.4,312.8,251.7,305.4,243.5,301.6z"/>
		<path class="st10" d="M145.3,364.1l-0.4,2.7c0,0,21.1,16,36.1,17.8V380C181,380,164.5,375.2,145.3,364.1z"/>
		<polygon class="st29" points="173.5,241.5 172.3,243.2 192,313.3 192.8,313.5   "/>
		<path class="st13" d="M168.5,287.4c0,0,0.3-7.5,3-8.7c2.8-1.2,6-2.5,7-3.2c1-0.7,3.3,1.8,1.1,3.9c-2.2,2.2-3.3,3.9-3,4.2    c0.3,0.3,8.6-4.7,10.3-2.3c1.7,2.3,0.1,5.4-0.4,6c-0.5,0.6,0.9,1.4,1.2,4.6c0.3,3.2,2.4,3.5,1.4,7.4c-1,3.9-25.2,12.9-33.4,5.9    C155.6,305.3,155.6,294.1,168.5,287.4z"/>
		<path class="st28" d="M166,288.8c0,0-7,10.5-5.1,18.7c0,0-3.8-0.7-5.2-2.3C155.6,305.3,155.7,295.1,166,288.8z"/>
		<path class="st3" d="M166.6,284.6c0,0-18.9,7.6-13.4,33.5l3.6,1.3c0,0-7.3-21.8,11.7-32l0.2-2.1L166.6,284.6z"/>
		<polygon class="st30" points="172.3,243.2 130.9,238.3 130.1,236.3 173.5,241.5   "/>
	</g>
</g>
</svg>